# xmcd
#
# Track frame offsets:
#	150
#	16633
#	32181
#	53710
#	74869
#	97280
#	111170
#	130093
#	145943
#	163479
#	181014
#	197318
#
# Disc length: 2814 seconds
#
# Revision: 1
# Processed by: cddbd v1.5.2PL0 Copyright (c) Steve Scherf et al.
# Submitted via: audiograbber 1.83.01
#
DISCID=aa0afc0c
DTITLE=Ray Austin and Friends - No Other Way
DYEAR=2007
DGENRE=Country
TTITLE0=No other way
TTITLE1=Mean old motor car
TTITLE2=A friend
TTITLE3=Riverboat
TTITLE4=Thirty hours a day
TTITLE5=Thin times
TTITLE6=Long hard road
TTITLE7=Hey Mr. Schoolboy
TTITLE8=Peace of Mind
TTITLE9=If anyone should ask you
TTITLE10=While Flowers Die
TTITLE11=Freiburg Steel
EXTD=
EXTT0=
EXTT1=
EXTT2=
EXTT3=
EXTT4=
EXTT5=
EXTT6=
EXTT7=
EXTT8=
EXTT9=
EXTT10=
EXTT11=
PLAYORDER=
